# xmcd CD database file
#
# Track frame offsets:
#	150
#	16252
#	31747
#	51692
#	77415
#	103387
#	124382
#	147192
#	170792
#	197160
#
# Disc length: 2866 seconds
#
# Revision: 2
# Processed by: cddbd v1.5PL3 Copyright (c) Steve Scherf et al.
# Submitted via: cdripper 1.0.7
#
DISCID=8e0b300a
DTITLE=Daisy Dee - Daisy Dee
DYEAR=1992
DGENRE=Blues
TTITLE0=Crazy(Daisy Dee US CD Version)
TTITLE1=I'm Real(Daisy Dee US CD Version)
TTITLE2=Cool It(Daisy Dee US CD Version)
TTITLE3=Let It Out(Daisy Dee US CD Version)
TTITLE4=Walkin' On That Side(Daisy Dee US CD Version)
TTITLE5=Pump It Up All The Way(Daisy Dee US CD Version)
TTITLE6=Anything For You(Daisy Dee US CD Version)
TTITLE7=What Is Dat?(Daisy Dee US CD Version)
TTITLE8=It's Gonna Be Alright(Daisy Dee US CD Version)
TTITLE9=I Got U(Daisy Dee US CD Version)
EXTD=YEAR: 1992
EXTT0=
EXTT1=
EXTT2=
EXTT3=
EXTT4=
EXTT5=
EXTT6=
EXTT7=
EXTT8=
EXTT9=
PLAYORDER=
